<svg width="101" height="90" viewBox="0 0 101 90" fill="none" xmlns="http://www.w3.org/2000/svg">
<circle cx="42.9152" cy="47.1" r="9.77923" fill="white" stroke="white" stroke-width="0.399152"/>
<path d="M3 87.0152H6.99152L38.5245 55.4822L34.533 51.4906L3 83.0236V87.0152Z" fill="white" stroke="white" stroke-width="0.399152"/>
<path d="M58.6817 11.3758L57.9271 10.9695C53.3134 8.48519 48.1553 7.18473 42.9152 7.18473V7.18473V7.18473C20.8706 7.18473 3 25.0554 3 47.0999V87.0151H42.9152C64.9598 87.0151 82.8304 69.1445 82.8304 47.0999V47.0999L82.8304 43.308" stroke="white" stroke-width="5.18898"/>
<path d="M68.9651 11.7643L67.2334 10.6483C66.2851 10.0371 65.0389 10.1703 64.2412 10.9681L62.455 12.7542L60.6689 14.5404C59.8711 15.3381 59.7379 16.5843 60.3491 17.5326L61.4651 19.2643C61.8262 19.8247 61.9375 20.5102 61.7723 21.1561L61.2703 23.1186C61.0963 23.7988 60.6327 24.3684 60.0021 24.677L58.3519 25.4846C57.3191 25.99 56.7909 27.1579 57.0934 28.2672L58.3183 32.7585C58.617 33.8537 59.6433 34.589 60.7764 34.5196L62.3659 34.4223C63.051 34.3804 63.7213 34.6343 64.2066 35.1196L65.8477 36.7607C66.2971 37.2101 66.5495 37.8196 66.5495 38.455L66.5495 40.5122C66.5495 41.5997 67.2819 42.5508 68.3332 42.8287L72.6889 43.9802C73.8592 44.2896 75.0764 43.6775 75.526 42.5536L76.1245 41.0574C76.4332 40.2856 77.1197 39.729 77.9386 39.5866L80.0368 39.2217C80.625 39.1194 81.2301 39.2403 81.7338 39.5608L83.471 40.6663C84.4184 41.2693 85.6576 41.1333 86.4517 40.3392L88.2458 38.545L90.04 36.7509C90.8341 35.9568 90.9701 34.7176 90.3671 33.7702L89.2616 32.033C88.9411 31.5293 88.8202 30.9242 88.9225 30.336L89.2874 28.2378C89.4298 27.4189 89.9864 26.7324 90.7582 26.4237L92.2544 25.8252C93.3783 25.3756 93.9904 24.1584 93.681 22.9881L92.5295 18.6324C92.2516 17.5811 91.3005 16.8487 90.213 16.8487L88.1558 16.8487C87.5204 16.8487 86.9109 16.5963 86.4615 16.1469L84.8204 14.5058C84.3351 14.0205 84.0812 13.3502 84.1231 12.6651L84.2204 11.0756C84.2898 9.9425 83.5545 8.91622 82.4593 8.61753L77.968 7.39264C76.8587 7.09009 75.6908 7.61826 75.1854 8.65109L74.3778 10.3013C74.0692 10.9319 73.4996 11.3955 72.8194 11.5695L70.8569 12.0715C70.211 12.2367 69.5255 12.1254 68.9651 11.7643Z" fill="white" stroke="white" stroke-width="0.266231"/>
<circle cx="75.4916" cy="25.6967" r="6.52267" transform="rotate(-45 75.4916 25.6967)" fill="#252525" stroke="#252525" stroke-width="0.266231"/>
</svg>
