<svg width="81" height="72" viewBox="0 0 81 72" fill="none" xmlns="http://www.w3.org/2000/svg">
<path d="M40.8888 37.9679C40.8888 42.1458 37.5641 45.5264 33.4707 45.5264C29.3772 45.5264 26.0526 42.1458 26.0526 37.9679C26.0526 33.7901 29.3772 30.4095 33.4707 30.4095C37.5641 30.4095 40.8888 33.7901 40.8888 37.9679Z" fill="#484B6A" stroke="#484B6A" stroke-width="0.399152"/>
<path d="M3 69H6.04707L30.1189 44.4847L27.0718 41.3815L3 65.8968V69Z" fill="#484B6A" stroke="#484B6A" stroke-width="0.399152"/>
<path d="M45.5073 10.1942L44.9089 9.86604C41.4032 7.94358 37.4694 6.93579 33.4712 6.93579V6.93579V6.93579C16.6424 6.93579 3 20.5782 3 37.4069V69H32.9102C50.0487 69 63.9423 55.1064 63.9423 37.9679V37.9679L63.9423 35.0198" stroke="#484B6A" stroke-width="5.18898"/>
<path d="M50.8835 11.3291L49.3759 10.3301C48.4409 9.71048 47.2122 9.8455 46.4257 10.6543L44.8134 12.3123L43.2011 13.9702C42.4145 14.779 42.2832 16.0424 42.8858 17.0039L43.8573 18.5541C44.2134 19.1223 44.3232 19.8173 44.1603 20.4722L43.7141 22.2655C43.5426 22.9551 43.0855 23.5326 42.4638 23.8455L41.0454 24.5593C40.0271 25.0717 39.5064 26.2557 39.8047 27.3805L40.9058 31.5322C41.2003 32.6426 42.2121 33.388 43.3293 33.3177L44.6789 33.2327C45.3544 33.1902 46.0152 33.4476 46.4938 33.9397L47.9653 35.4529C48.4083 35.9085 48.6572 36.5264 48.6572 37.1707L48.6572 39.0189C48.6572 40.1214 49.3793 41.0857 50.4158 41.3675L54.324 42.4299C55.4778 42.7436 56.678 42.123 57.1212 40.9836L57.6225 39.6949C57.9269 38.9125 58.6038 38.3481 59.4112 38.2037L61.2756 37.8703C61.8555 37.7666 62.4522 37.8892 62.9487 38.2142L64.4662 39.2072C65.4003 39.8184 66.622 39.6805 67.405 38.8754L69.0251 37.2094L70.6453 35.5433C71.4283 34.7382 71.5624 33.4819 70.9679 32.5213L70.0023 30.961C69.6863 30.4503 69.567 29.8368 69.6679 29.2405L69.9921 27.3233C70.1326 26.493 70.6814 25.7969 71.4422 25.484L72.6954 24.9685C73.8036 24.5127 74.407 23.2786 74.102 22.0921L73.0688 18.0733C72.7948 17.0074 71.857 16.2649 70.7849 16.2649H68.9875C68.3609 16.2649 67.7601 16.009 67.317 15.5534L65.8455 14.0402C65.367 13.5481 65.1166 12.8686 65.158 12.174L65.2406 10.7862C65.309 9.63736 64.584 8.59687 63.5042 8.29403L59.4668 7.16175C58.373 6.85501 57.2216 7.3905 56.7233 8.43764L56.0292 9.89617C55.7249 10.5355 55.1633 11.0055 54.4927 11.1819L52.7487 11.6406C52.1119 11.8082 51.436 11.6953 50.8835 11.3291Z" fill="#484B6A" stroke="#484B6A" stroke-width="0.266231"/>
<circle cx="6.33734" cy="6.33734" r="6.20422" transform="matrix(0.697171 -0.716905 0.697171 0.716905 48.2154 24.8063)" fill="#F9F9F9" stroke="#484B6A" stroke-width="0.266231"/>
</svg>
