<svg width="606" height="90" viewBox="0 0 606 90" fill="none" xmlns="http://www.w3.org/2000/svg">
<path d="M164.622 41.0566H152.31C152.222 40.0379 151.989 39.1137 151.611 38.2841C151.247 37.4546 150.738 36.7414 150.083 36.1447C149.442 35.5335 148.664 35.0677 147.747 34.7475C146.83 34.4128 145.789 34.2454 144.625 34.2454C142.588 34.2454 140.863 34.7403 139.451 35.7299C138.054 36.7196 136.992 38.1386 136.264 39.9869C135.551 41.8353 135.194 44.0547 135.194 46.6453C135.194 49.3814 135.558 51.6737 136.286 53.522C137.028 55.3558 138.098 56.7384 139.495 57.6698C140.892 58.5867 142.573 59.0452 144.538 59.0452C145.658 59.0452 146.663 58.9069 147.55 58.6304C148.438 58.3393 149.21 57.9245 149.864 57.386C150.519 56.8475 151.051 56.1999 151.458 55.4431C151.88 54.6717 152.164 53.8058 152.31 52.8452L164.622 52.9326C164.477 54.8246 163.945 56.7529 163.028 58.7177C162.112 60.6679 160.809 62.4726 159.121 64.1317C157.447 65.7763 155.373 67.1007 152.899 68.1049C150.425 69.1092 147.55 69.6113 144.276 69.6113C140.172 69.6113 136.489 68.7308 133.229 66.9697C129.984 65.2087 127.415 62.6181 125.523 59.198C123.646 55.7778 122.707 51.5936 122.707 46.6453C122.707 41.6679 123.668 37.4764 125.589 34.0708C127.51 30.6506 130.1 28.0673 133.36 26.3209C136.62 24.5599 140.259 23.6794 144.276 23.6794C147.099 23.6794 149.697 24.065 152.069 24.8364C154.442 25.6077 156.523 26.7357 158.313 28.2201C160.103 29.6901 161.544 31.502 162.635 33.656C163.727 35.81 164.389 38.2768 164.622 41.0566ZM225.121 46.6453C225.121 51.6227 224.154 55.8215 222.218 59.2417C220.282 62.6473 217.67 65.2306 214.381 66.9916C211.092 68.738 207.424 69.6113 203.378 69.6113C199.303 69.6113 195.621 68.7308 192.332 66.9697C189.057 65.1942 186.452 62.6036 184.516 59.198C182.595 55.7778 181.635 51.5936 181.635 46.6453C181.635 41.6679 182.595 37.4764 184.516 34.0708C186.452 30.6506 189.057 28.0673 192.332 26.3209C195.621 24.5599 199.303 23.6794 203.378 23.6794C207.424 23.6794 211.092 24.5599 214.381 26.3209C217.67 28.0673 220.282 30.6506 222.218 34.0708C224.154 37.4764 225.121 41.6679 225.121 46.6453ZM212.634 46.6453C212.634 43.9674 212.278 41.7116 211.565 39.8778C210.866 38.0294 209.825 36.6323 208.443 35.6863C207.075 34.7257 205.386 34.2454 203.378 34.2454C201.37 34.2454 199.674 34.7257 198.291 35.6863C196.923 36.6323 195.883 38.0294 195.17 39.8778C194.471 41.7116 194.122 43.9674 194.122 46.6453C194.122 49.3232 194.471 51.5863 195.17 53.4347C195.883 55.2685 196.923 56.6656 198.291 57.6262C199.674 58.5722 201.37 59.0452 203.378 59.0452C205.386 59.0452 207.075 58.5722 208.443 57.6262C209.825 56.6656 210.866 55.2685 211.565 53.4347C212.278 51.5863 212.634 49.3232 212.634 46.6453ZM259.62 69H242.418V24.2906H259.446C264.045 24.2906 268.018 25.1857 271.365 26.9758C274.727 28.7514 277.318 31.3128 279.137 34.6602C280.971 37.993 281.888 41.9881 281.888 46.6453C281.888 51.3025 280.978 55.3048 279.159 58.6522C277.34 61.9851 274.764 64.5465 271.431 66.3366C268.098 68.1122 264.161 69 259.62 69ZM254.556 58.6959H259.184C261.396 58.6959 263.281 58.3393 264.838 57.6262C266.41 56.913 267.603 55.6832 268.418 53.9368C269.248 52.1903 269.662 49.7598 269.662 46.6453C269.662 43.5308 269.24 41.1003 268.396 39.3538C267.567 37.6074 266.344 36.3776 264.729 35.6644C263.128 34.9513 261.163 34.5947 258.834 34.5947H254.556V58.6959ZM299.184 69V24.2906H331.406V34.0708H311.322V41.7552H329.747V51.5354H311.322V59.2198H331.319V69H299.184ZM387.79 24.2906V69H377.661L361.506 45.5101H361.244V69H349.106V24.2906H359.41L375.303 47.6932H375.653V24.2906H387.79ZM448.524 46.6453C448.524 51.6227 447.557 55.8215 445.621 59.2417C443.685 62.6473 441.073 65.2306 437.784 66.9916C434.495 68.738 430.827 69.6113 426.781 69.6113C422.706 69.6113 419.024 68.7308 415.735 66.9697C412.46 65.1942 409.855 62.6036 407.919 59.198C405.998 55.7778 405.038 51.5936 405.038 46.6453C405.038 41.6679 405.998 37.4764 407.919 34.0708C409.855 30.6506 412.46 28.0673 415.735 26.3209C419.024 24.5599 422.706 23.6794 426.781 23.6794C430.827 23.6794 434.495 24.5599 437.784 26.3209C441.073 28.0673 443.685 30.6506 445.621 34.0708C447.557 37.4764 448.524 41.6679 448.524 46.6453ZM436.037 46.6453C436.037 43.9674 435.681 41.7116 434.968 39.8778C434.269 38.0294 433.228 36.6323 431.846 35.6863C430.478 34.7257 428.789 34.2454 426.781 34.2454C424.773 34.2454 423.077 34.7257 421.694 35.6863C420.326 36.6323 419.286 38.0294 418.573 39.8778C417.874 41.7116 417.525 43.9674 417.525 46.6453C417.525 49.3232 417.874 51.5863 418.573 53.4347C419.286 55.2685 420.326 56.6656 421.694 57.6262C423.077 58.5722 424.773 59.0452 426.781 59.0452C428.789 59.0452 430.478 58.5722 431.846 57.6262C433.228 56.6656 434.269 55.2685 434.968 53.4347C435.681 51.5863 436.037 49.3232 436.037 46.6453ZM462.497 34.0708V24.2906H501.356V34.0708H487.908V69H475.945V34.0708H462.497ZM517.604 69V24.2906H549.826V34.0708H529.742V41.7552H548.167V51.5354H529.742V59.2198H549.739V69H517.604ZM591.628 38.2623C591.511 36.8069 590.966 35.6717 589.99 34.8567C589.03 34.0417 587.567 33.6342 585.602 33.6342C584.351 33.6342 583.325 33.787 582.524 34.0926C581.738 34.3837 581.156 34.7839 580.778 35.2933C580.399 35.8027 580.203 36.3849 580.188 37.0398C580.159 37.5783 580.254 38.0658 580.472 38.5024C580.705 38.9245 581.069 39.3102 581.564 39.6595C582.059 39.9942 582.692 40.2998 583.463 40.5764C584.234 40.8529 585.151 41.1003 586.214 41.3186L589.881 42.1045C592.355 42.6284 594.473 43.3198 596.234 44.1784C597.995 45.0371 599.436 46.0486 600.556 47.2129C601.677 48.3627 602.499 49.658 603.023 51.0988C603.562 52.5396 603.838 54.1114 603.853 55.8142C603.838 58.7541 603.103 61.2428 601.648 63.2803C600.193 65.3179 598.111 66.8679 595.404 67.9303C592.712 68.9927 589.474 69.5239 585.69 69.5239C581.804 69.5239 578.413 68.9491 575.517 67.7993C572.635 66.6496 570.394 64.8813 568.793 62.4944C567.206 60.0931 566.406 57.0222 566.391 53.2819H577.918C577.991 54.6499 578.333 55.7997 578.944 56.7311C579.555 57.6626 580.414 58.3684 581.52 58.8487C582.641 59.329 583.972 59.5691 585.515 59.5691C586.81 59.5691 587.895 59.409 588.768 59.0888C589.641 58.7687 590.303 58.3248 590.754 57.7572C591.206 57.1896 591.439 56.5419 591.453 55.8142C591.439 55.1302 591.213 54.5335 590.776 54.0241C590.354 53.5002 589.656 53.0344 588.681 52.6269C587.705 52.2049 586.388 51.8119 584.729 51.4481L580.276 50.4875C576.317 49.6288 573.195 48.1953 570.91 46.1869C568.64 44.1639 567.512 41.4059 567.527 37.913C567.512 35.075 568.269 32.5936 569.797 30.4687C571.34 28.3293 573.472 26.6629 576.193 25.4695C578.929 24.2761 582.066 23.6794 585.602 23.6794C589.212 23.6794 592.334 24.2833 594.968 25.4913C597.602 26.6993 599.632 28.4021 601.059 30.5997C602.499 32.7828 603.227 35.337 603.242 38.2623H591.628Z" fill="black"/>
<circle cx="42.9152" cy="47.1" r="9.9788" fill="#252525"/>
<path d="M3 87.0152H6.99152L38.5245 55.4821L34.533 51.4906L3 83.0236V87.0152Z" fill="#252525"/>
<path d="M58.6817 11.3758L57.9271 10.9695C53.3134 8.48518 48.1553 7.18472 42.9152 7.18472V7.18472V7.18472C20.8706 7.18472 3 25.0554 3 47.0999V87.0151H42.9152C64.9598 87.0151 82.8304 69.1445 82.8304 47.0999V47.0999L82.8304 43.308" stroke="#252525" stroke-width="5.18898"/>
<path d="M68.9651 11.7643L67.2334 10.6483C66.2851 10.0371 65.0389 10.1703 64.2411 10.9681L62.455 12.7542L60.6688 14.5404C59.8711 15.3381 59.7379 16.5843 60.3491 17.5326L61.465 19.2643C61.8262 19.8247 61.9375 20.5102 61.7723 21.1561L61.2703 23.1186C61.0963 23.7988 60.6327 24.3684 60.0021 24.677L58.3519 25.4846C57.319 25.99 56.7909 27.1579 57.0934 28.2672L58.3183 32.7585C58.617 33.8537 59.6433 34.589 60.7764 34.5196L62.3659 34.4223C63.051 34.3804 63.7212 34.6343 64.2066 35.1196L65.8477 36.7607C66.2971 37.2101 66.5495 37.8195 66.5495 38.455L66.5495 40.5122C66.5495 41.5996 67.2819 42.5507 68.3332 42.8287L72.6889 43.9802C73.8592 44.2896 75.0764 43.6775 75.526 42.5536L76.1245 41.0573C76.4331 40.2856 77.1197 39.729 77.9386 39.5866L80.0368 39.2217C80.625 39.1194 81.2301 39.2403 81.7338 39.5608L83.471 40.6663C84.4184 41.2693 85.6575 41.1333 86.4516 40.3391L88.2458 38.545L90.0399 36.7509C90.834 35.9567 90.9701 34.7176 90.3671 33.7702L89.2616 32.033C88.9411 31.5293 88.8202 30.9242 88.9225 30.336L89.2874 28.2378C89.4298 27.4189 89.9864 26.7324 90.7581 26.4237L92.2544 25.8252C93.3783 25.3756 93.9904 24.1584 93.681 22.9881L92.5295 18.6324C92.2515 17.5811 91.3004 16.8487 90.213 16.8487L88.1558 16.8487C87.5203 16.8487 86.9109 16.5963 86.4615 16.1469L84.8204 14.5058C84.3351 14.0205 84.0812 13.3502 84.1231 12.6651L84.2204 11.0756C84.2898 9.94249 83.5545 8.91622 82.4593 8.61752L77.968 7.39263C76.8587 7.09008 75.6908 7.61825 75.1854 8.65108L74.3778 10.3013C74.0692 10.9319 73.4996 11.3955 72.8194 11.5695L70.8569 12.0715C70.211 12.2367 69.5255 12.1254 68.9651 11.7643Z" fill="#252525"/>
<circle cx="75.4916" cy="25.6967" r="6.65578" transform="rotate(-45 75.4916 25.6967)" fill="white"/>
</svg>
