<svg width="325" height="72" viewBox="0 0 325 72" fill="none" xmlns="http://www.w3.org/2000/svg">
<path d="M113.55 32.975C113.35 33.2417 113.15 33.45 112.95 33.6C112.75 33.7333 112.467 33.8 112.1 33.8C111.767 33.8 111.442 33.7083 111.125 33.525C110.825 33.325 110.475 33.1167 110.075 32.9C109.675 32.6667 109.2 32.4583 108.65 32.275C108.1 32.075 107.417 31.975 106.6 31.975C105.567 31.975 104.667 32.1667 103.9 32.55C103.15 32.9167 102.525 33.45 102.025 34.15C101.525 34.85 101.15 35.7 100.9 36.7C100.667 37.7 100.55 38.825 100.55 40.075C100.55 42.7083 101.075 44.725 102.125 46.125C103.192 47.525 104.642 48.225 106.475 48.225C107.108 48.225 107.65 48.175 108.1 48.075C108.567 47.9583 108.967 47.8167 109.3 47.65C109.65 47.4833 109.95 47.3 110.2 47.1C110.45 46.9 110.683 46.7167 110.9 46.55C111.133 46.3833 111.358 46.25 111.575 46.15C111.808 46.0333 112.067 45.975 112.35 45.975C112.883 45.975 113.3 46.175 113.6 46.575L115.575 49.075C114.842 49.925 114.058 50.6333 113.225 51.2C112.392 51.75 111.525 52.1917 110.625 52.525C109.742 52.8417 108.842 53.0583 107.925 53.175C107.008 53.3083 106.1 53.375 105.2 53.375C103.617 53.375 102.117 53.0833 100.7 52.5C99.2833 51.9 98.0417 51.0333 96.975 49.9C95.9083 48.7667 95.0583 47.375 94.425 45.725C93.8083 44.075 93.5 42.1917 93.5 40.075C93.5 38.1917 93.775 36.4417 94.325 34.825C94.875 33.2083 95.6833 31.8083 96.75 30.625C97.8167 29.4417 99.1333 28.5167 100.7 27.85C102.283 27.1667 104.108 26.825 106.175 26.825C108.142 26.825 109.867 27.1417 111.35 27.775C112.833 28.4083 114.167 29.325 115.35 30.525L113.55 32.975ZM130.254 26.825C132.188 26.825 133.946 27.1333 135.529 27.75C137.113 28.3667 138.471 29.25 139.604 30.4C140.738 31.5333 141.613 32.9167 142.229 34.55C142.846 36.1833 143.154 38.025 143.154 40.075C143.154 42.125 142.846 43.975 142.229 45.625C141.613 47.2583 140.738 48.65 139.604 49.8C138.471 50.95 137.113 51.8333 135.529 52.45C133.946 53.0667 132.188 53.375 130.254 53.375C128.304 53.375 126.529 53.0667 124.929 52.45C123.346 51.8333 121.988 50.95 120.854 49.8C119.721 48.65 118.838 47.2583 118.204 45.625C117.588 43.975 117.279 42.125 117.279 40.075C117.279 38.025 117.588 36.1833 118.204 34.55C118.838 32.9167 119.721 31.5333 120.854 30.4C121.988 29.25 123.346 28.3667 124.929 27.75C126.529 27.1333 128.304 26.825 130.254 26.825ZM130.254 48.2C132.221 48.2 133.679 47.525 134.629 46.175C135.579 44.8083 136.054 42.7833 136.054 40.1C136.054 37.4333 135.579 35.425 134.629 34.075C133.679 32.7083 132.221 32.025 130.254 32.025C128.238 32.025 126.754 32.7083 125.804 34.075C124.854 35.425 124.379 37.4333 124.379 40.1C124.379 42.7833 124.854 44.8083 125.804 46.175C126.754 47.525 128.238 48.2 130.254 48.2ZM163.412 33.925C162.762 33.175 162.053 32.65 161.287 32.35C160.537 32.05 159.737 31.9 158.887 31.9C158.053 31.9 157.295 32.0583 156.612 32.375C155.928 32.6917 155.337 33.1917 154.837 33.875C154.353 34.5417 153.978 35.4 153.712 36.45C153.445 37.5 153.312 38.75 153.312 40.2C153.312 41.6333 153.42 42.85 153.637 43.85C153.853 44.85 154.162 45.6583 154.562 46.275C154.978 46.8917 155.478 47.3417 156.062 47.625C156.645 47.8917 157.295 48.025 158.012 48.025C159.228 48.025 160.245 47.7833 161.062 47.3C161.895 46.8167 162.678 46.1333 163.412 45.25V33.925ZM170.312 15.725V53H166.062C165.178 53 164.612 52.6 164.362 51.8L163.787 49.55C163.27 50.1167 162.72 50.6333 162.137 51.1C161.57 51.5667 160.953 51.975 160.287 52.325C159.62 52.6583 158.903 52.9167 158.137 53.1C157.37 53.2833 156.537 53.375 155.637 53.375C154.253 53.375 152.987 53.0833 151.837 52.5C150.687 51.9167 149.687 51.0667 148.837 49.95C148.003 48.8167 147.353 47.4333 146.887 45.8C146.42 44.1667 146.187 42.3 146.187 40.2C146.187 38.2833 146.445 36.5 146.962 34.85C147.495 33.2 148.245 31.775 149.212 30.575C150.178 29.375 151.345 28.4333 152.712 27.75C154.078 27.0667 155.595 26.725 157.262 26.725C158.662 26.725 159.837 26.9333 160.787 27.35C161.753 27.7667 162.628 28.3333 163.412 29.05V15.725H170.312ZM192.401 37.075C192.401 36.3583 192.301 35.675 192.101 35.025C191.918 34.375 191.618 33.8 191.201 33.3C190.785 32.8 190.26 32.4083 189.626 32.125C188.993 31.825 188.235 31.675 187.351 31.675C185.701 31.675 184.41 32.1417 183.476 33.075C182.543 34.0083 181.935 35.3417 181.651 37.075H192.401ZM181.551 41.175C181.768 43.5917 182.451 45.3583 183.601 46.475C184.768 47.5917 186.285 48.15 188.151 48.15C189.101 48.15 189.918 48.0417 190.601 47.825C191.301 47.5917 191.91 47.3417 192.426 47.075C192.96 46.7917 193.435 46.5417 193.851 46.325C194.285 46.0917 194.71 45.975 195.126 45.975C195.66 45.975 196.076 46.175 196.376 46.575L198.376 49.075C197.643 49.925 196.835 50.6333 195.951 51.2C195.068 51.75 194.151 52.1917 193.201 52.525C192.251 52.8417 191.293 53.0583 190.326 53.175C189.36 53.3083 188.426 53.375 187.526 53.375C185.726 53.375 184.043 53.0833 182.476 52.5C180.926 51.9 179.568 51.025 178.401 49.875C177.251 48.7083 176.343 47.2667 175.676 45.55C175.01 43.8333 174.676 41.8417 174.676 39.575C174.676 37.825 174.96 36.175 175.526 34.625C176.11 33.075 176.943 31.725 178.026 30.575C179.11 29.425 180.426 28.5167 181.976 27.85C183.526 27.1667 185.276 26.825 187.226 26.825C188.876 26.825 190.393 27.0917 191.776 27.625C193.176 28.1417 194.376 28.9 195.376 29.9C196.393 30.9 197.176 32.1333 197.726 33.6C198.293 35.05 198.576 36.7083 198.576 38.575C198.576 39.0917 198.551 39.5167 198.501 39.85C198.451 40.1833 198.368 40.45 198.251 40.65C198.135 40.85 197.976 40.9917 197.776 41.075C197.576 41.1417 197.318 41.175 197.001 41.175H181.551ZM209.258 30.225C209.774 29.725 210.308 29.2667 210.858 28.85C211.424 28.4333 212.016 28.075 212.633 27.775C213.266 27.475 213.941 27.2417 214.658 27.075C215.391 26.9083 216.183 26.825 217.033 26.825C218.433 26.825 219.674 27.0667 220.758 27.55C221.841 28.0333 222.749 28.7083 223.483 29.575C224.233 30.4417 224.791 31.475 225.158 32.675C225.541 33.875 225.733 35.1917 225.733 36.625V53H218.858V36.625C218.858 35.1917 218.524 34.0833 217.858 33.3C217.191 32.5 216.208 32.1 214.908 32.1C213.941 32.1 213.033 32.3083 212.183 32.725C211.333 33.1417 210.524 33.725 209.758 34.475V53H202.858V27.225H207.108C207.974 27.225 208.549 27.625 208.833 28.425L209.258 30.225ZM242.852 26.825C244.785 26.825 246.544 27.1333 248.127 27.75C249.71 28.3667 251.069 29.25 252.202 30.4C253.335 31.5333 254.21 32.9167 254.827 34.55C255.444 36.1833 255.752 38.025 255.752 40.075C255.752 42.125 255.444 43.975 254.827 45.625C254.21 47.2583 253.335 48.65 252.202 49.8C251.069 50.95 249.71 51.8333 248.127 52.45C246.544 53.0667 244.785 53.375 242.852 53.375C240.902 53.375 239.127 53.0667 237.527 52.45C235.944 51.8333 234.585 50.95 233.452 49.8C232.319 48.65 231.435 47.2583 230.802 45.625C230.185 43.975 229.877 42.125 229.877 40.075C229.877 38.025 230.185 36.1833 230.802 34.55C231.435 32.9167 232.319 31.5333 233.452 30.4C234.585 29.25 235.944 28.3667 237.527 27.75C239.127 27.1333 240.902 26.825 242.852 26.825ZM242.852 48.2C244.819 48.2 246.277 47.525 247.227 46.175C248.177 44.8083 248.652 42.7833 248.652 40.1C248.652 37.4333 248.177 35.425 247.227 34.075C246.277 32.7083 244.819 32.025 242.852 32.025C240.835 32.025 239.352 32.7083 238.402 34.075C237.452 35.425 236.977 37.4333 236.977 40.1C236.977 42.7833 237.452 44.8083 238.402 46.175C239.352 47.525 240.835 48.2 242.852 48.2ZM268.496 53.4C267.329 53.4 266.296 53.2333 265.396 52.9C264.496 52.55 263.738 52.0583 263.121 51.425C262.504 50.7917 262.038 50.025 261.721 49.125C261.404 48.225 261.246 47.2083 261.246 46.075V32.175H258.821C258.454 32.175 258.138 32.0583 257.871 31.825C257.621 31.5917 257.496 31.2417 257.496 30.775V28.075L261.621 27.325L263.021 20.65C263.204 19.9 263.713 19.525 264.546 19.525H268.146V27.375H274.796V32.175H268.146V45.625C268.146 46.3417 268.313 46.9083 268.646 47.325C268.996 47.7417 269.488 47.95 270.121 47.95C270.454 47.95 270.738 47.9167 270.971 47.85C271.204 47.7667 271.404 47.6833 271.571 47.6C271.738 47.5 271.888 47.4167 272.021 47.35C272.171 47.2667 272.321 47.225 272.471 47.225C272.671 47.225 272.838 47.275 272.971 47.375C273.104 47.4583 273.238 47.6083 273.371 47.825L275.446 51.125C274.496 51.875 273.421 52.4417 272.221 52.825C271.021 53.2083 269.779 53.4 268.496 53.4ZM294.598 37.075C294.598 36.3583 294.498 35.675 294.298 35.025C294.115 34.375 293.815 33.8 293.398 33.3C292.982 32.8 292.457 32.4083 291.823 32.125C291.19 31.825 290.432 31.675 289.548 31.675C287.898 31.675 286.607 32.1417 285.673 33.075C284.74 34.0083 284.132 35.3417 283.848 37.075H294.598ZM283.748 41.175C283.965 43.5917 284.648 45.3583 285.798 46.475C286.965 47.5917 288.482 48.15 290.348 48.15C291.298 48.15 292.115 48.0417 292.798 47.825C293.498 47.5917 294.107 47.3417 294.623 47.075C295.157 46.7917 295.632 46.5417 296.048 46.325C296.482 46.0917 296.907 45.975 297.323 45.975C297.857 45.975 298.273 46.175 298.573 46.575L300.573 49.075C299.84 49.925 299.032 50.6333 298.148 51.2C297.265 51.75 296.348 52.1917 295.398 52.525C294.448 52.8417 293.49 53.0583 292.523 53.175C291.557 53.3083 290.623 53.375 289.723 53.375C287.923 53.375 286.24 53.0833 284.673 52.5C283.123 51.9 281.765 51.025 280.598 49.875C279.448 48.7083 278.54 47.2667 277.873 45.55C277.207 43.8333 276.873 41.8417 276.873 39.575C276.873 37.825 277.157 36.175 277.723 34.625C278.307 33.075 279.14 31.725 280.223 30.575C281.307 29.425 282.623 28.5167 284.173 27.85C285.723 27.1667 287.473 26.825 289.423 26.825C291.073 26.825 292.59 27.0917 293.973 27.625C295.373 28.1417 296.573 28.9 297.573 29.9C298.59 30.9 299.373 32.1333 299.923 33.6C300.49 35.05 300.773 36.7083 300.773 38.575C300.773 39.0917 300.748 39.5167 300.698 39.85C300.648 40.1833 300.565 40.45 300.448 40.65C300.332 40.85 300.173 40.9917 299.973 41.075C299.773 41.1417 299.515 41.175 299.198 41.175H283.748ZM321.08 32.525C320.897 32.8083 320.705 33.0167 320.505 33.15C320.322 33.2667 320.063 33.325 319.73 33.325C319.397 33.325 319.055 33.2417 318.705 33.075C318.355 32.9083 317.963 32.7333 317.53 32.55C317.097 32.35 316.597 32.1667 316.03 32C315.48 31.8333 314.838 31.75 314.105 31.75C312.988 31.75 312.122 31.9833 311.505 32.45C310.888 32.9 310.58 33.5 310.58 34.25C310.58 34.7667 310.755 35.2 311.105 35.55C311.455 35.9 311.913 36.2083 312.48 36.475C313.063 36.725 313.722 36.9667 314.455 37.2C315.188 37.4167 315.938 37.6583 316.705 37.925C317.488 38.1917 318.247 38.5 318.98 38.85C319.713 39.2 320.363 39.6417 320.93 40.175C321.513 40.6917 321.98 41.325 322.33 42.075C322.68 42.8083 322.855 43.7 322.855 44.75C322.855 46 322.622 47.1583 322.155 48.225C321.705 49.275 321.038 50.1833 320.155 50.95C319.272 51.7167 318.172 52.3167 316.855 52.75C315.538 53.1833 314.022 53.4 312.305 53.4C311.422 53.4 310.547 53.3167 309.68 53.15C308.813 53 307.988 52.7833 307.205 52.5C306.422 52.2 305.688 51.8583 305.005 51.475C304.322 51.0917 303.73 50.675 303.23 50.225L304.83 47.65C305.013 47.35 305.238 47.1167 305.505 46.95C305.788 46.7833 306.147 46.7 306.58 46.7C306.997 46.7 307.38 46.8083 307.73 47.025C308.08 47.225 308.472 47.45 308.905 47.7C309.338 47.9333 309.847 48.1583 310.43 48.375C311.03 48.575 311.772 48.675 312.655 48.675C313.322 48.675 313.897 48.6 314.38 48.45C314.863 48.3 315.255 48.1 315.555 47.85C315.855 47.5833 316.072 47.2917 316.205 46.975C316.355 46.6417 316.43 46.3 316.43 45.95C316.43 45.3833 316.247 44.925 315.88 44.575C315.53 44.2083 315.063 43.8917 314.48 43.625C313.913 43.3583 313.255 43.1167 312.505 42.9C311.755 42.6833 310.988 42.4417 310.205 42.175C309.438 41.9083 308.68 41.5917 307.93 41.225C307.197 40.8583 306.538 40.4 305.955 39.85C305.388 39.2833 304.922 38.5917 304.555 37.775C304.205 36.9583 304.03 35.9667 304.03 34.8C304.03 33.7333 304.238 32.725 304.655 31.775C305.072 30.8083 305.697 29.9583 306.53 29.225C307.363 28.4917 308.397 27.9083 309.63 27.475C310.88 27.0417 312.322 26.825 313.955 26.825C315.788 26.825 317.455 27.125 318.955 27.725C320.455 28.325 321.688 29.1083 322.655 30.075L321.08 32.525Z" fill="#484B6A"/>
<path d="M40.8888 37.9679C40.8888 42.1458 37.5641 45.5264 33.4707 45.5264C29.3772 45.5264 26.0526 42.1458 26.0526 37.9679C26.0526 33.7901 29.3772 30.4095 33.4707 30.4095C37.5641 30.4095 40.8888 33.7901 40.8888 37.9679Z" fill="#484B6A" stroke="#484B6A" stroke-width="0.399152"/>
<path d="M3 69H6.04707L30.1189 44.4847L27.0718 41.3815L3 65.8968V69Z" fill="#484B6A" stroke="#484B6A" stroke-width="0.399152"/>
<path d="M45.5073 10.1942L44.9089 9.86604C41.4032 7.94358 37.4694 6.93579 33.4712 6.93579V6.93579V6.93579C16.6424 6.93579 3 20.5782 3 37.4069V69H32.9102C50.0487 69 63.9423 55.1064 63.9423 37.9679V37.9679L63.9423 35.0198" stroke="#484B6A" stroke-width="5.18898"/>
<path d="M50.8835 11.3291L49.3759 10.3301C48.4409 9.71048 47.2122 9.8455 46.4257 10.6543L44.8134 12.3123L43.2011 13.9702C42.4145 14.779 42.2832 16.0424 42.8858 17.0039L43.8573 18.5541C44.2134 19.1223 44.3232 19.8173 44.1603 20.4722L43.7141 22.2655C43.5426 22.9551 43.0855 23.5326 42.4638 23.8455L41.0454 24.5593C40.0271 25.0717 39.5064 26.2557 39.8047 27.3805L40.9058 31.5322C41.2003 32.6426 42.2121 33.388 43.3293 33.3177L44.6789 33.2327C45.3544 33.1902 46.0152 33.4476 46.4938 33.9397L47.9653 35.4529C48.4083 35.9085 48.6572 36.5264 48.6572 37.1707L48.6572 39.0189C48.6572 40.1214 49.3793 41.0857 50.4158 41.3675L54.324 42.4299C55.4778 42.7436 56.678 42.123 57.1212 40.9836L57.6225 39.6949C57.9269 38.9125 58.6038 38.3481 59.4112 38.2037L61.2756 37.8703C61.8555 37.7666 62.4522 37.8892 62.9487 38.2142L64.4662 39.2072C65.4003 39.8184 66.622 39.6805 67.405 38.8754L69.0251 37.2094L70.6453 35.5433C71.4283 34.7382 71.5624 33.4819 70.9679 32.5213L70.0023 30.961C69.6863 30.4503 69.567 29.8368 69.6679 29.2405L69.9921 27.3233C70.1326 26.493 70.6814 25.7969 71.4422 25.484L72.6954 24.9685C73.8036 24.5127 74.407 23.2786 74.102 22.0921L73.0688 18.0733C72.7948 17.0074 71.857 16.2649 70.7849 16.2649H68.9875C68.3609 16.2649 67.7601 16.009 67.317 15.5534L65.8455 14.0402C65.367 13.5481 65.1166 12.8686 65.158 12.174L65.2406 10.7862C65.309 9.63736 64.584 8.59687 63.5042 8.29403L59.4668 7.16175C58.373 6.85501 57.2216 7.39049 56.7233 8.43764L56.0292 9.89617C55.7249 10.5355 55.1633 11.0055 54.4927 11.1819L52.7487 11.6406C52.1119 11.8082 51.436 11.6953 50.8835 11.3291Z" fill="#484B6A" stroke="#484B6A" stroke-width="0.266231"/>
<circle cx="6.33734" cy="6.33734" r="6.20422" transform="matrix(0.697171 -0.716905 0.697171 0.716905 48.2154 24.8063)" fill="white" stroke="#484B6A" stroke-width="0.266231"/>
</svg>
